HIERARCHY
ROOT Hips
{
	OFFSET 0.000000 0.794594 0.001814
	CHANNELS 6 Xposition Yposition Zposition Zrotation Xrotation Yrotation
	JOINT Spine
	{
		OFFSET -0.000000 0.051920 0.010783
		CHANNELS 3 Zrotation Xrotation Yrotation
		JOINT Chest
		{
			OFFSET 0.000000 0.111800 0.002643
			CHANNELS 3 Zrotation Xrotation Yrotation
			JOINT UpperChest
			{
				OFFSET 0.000011 0.124994 0.000757
				CHANNELS 3 Zrotation Xrotation Yrotation
				JOINT Neck
				{
					OFFSET 0.000112 0.117645 -0.020286
					CHANNELS 3 Zrotation Xrotation Yrotation
					JOINT Head
					{
						OFFSET 0.000009 0.074358 -0.000161
						CHANNELS 3 Zrotation Xrotation Yrotation
						JOINT LeftEye
						{
							OFFSET 0.019846 0.051735 0.040589
							CHANNELS 3 Zrotation Xrotation Yrotation
							End Site
							{
								OFFSET -0.000199 0.054090 0.042333
							}
						}
						JOINT RightEye
						{
							OFFSET -0.020226 0.051740 0.040395
							CHANNELS 3 Zrotation Xrotation Yrotation
							End Site
							{
								OFFSET -0.000199 0.054090 0.042333
							}
						}
					}
				}
				JOINT LeftShoulder
				{
					OFFSET 0.022481 0.089795 -0.017340
					CHANNELS 3 Zrotation Xrotation Yrotation
					JOINT LeftUpperArm
					{
						OFFSET 0.087730 -0.000010 0.000425
						CHANNELS 3 Zrotation Xrotation Yrotation
						JOINT LeftLowerArm
						{
							OFFSET 0.210368 -0.000024 0.001018
							CHANNELS 3 Zrotation Xrotation Yrotation
							JOINT LeftHand
							{
								OFFSET 0.205447 -0.000023 0.000995
								CHANNELS 3 Zrotation Xrotation Yrotation
								JOINT LeftIndexProximal
								{
									OFFSET 0.064530 0.001495 0.020207
									CHANNELS 3 Zrotation Xrotation Yrotation
									JOINT LeftIndexIntermediate
									{
										OFFSET 0.033222 -0.000004 0.000161
										CHANNELS 3 Zrotation Xrotation Yrotation
										JOINT LeftIndexDistal
										{
											OFFSET 0.020455 -0.000002 0.000099
											CHANNELS 3 Zrotation Xrotation Yrotation
											End Site
											{
												OFFSET 0.020455 -0.000002 0.000099
											}
										}
									}
								}
								JOINT LeftLittleProximal
								{
									OFFSET 0.062810 -0.001965 -0.027941
									CHANNELS 3 Zrotation Xrotation Yrotation
									JOINT LeftLittleIntermediate
									{
										OFFSET 0.031399 -0.000004 0.000152
										CHANNELS 3 Zrotation Xrotation Yrotation
										JOINT LeftLittleDistal
										{
											OFFSET 0.018096 -0.000002 0.000088
											CHANNELS 3 Zrotation Xrotation Yrotation
											End Site
											{
												OFFSET 0.018096 -0.000002 0.000088
											}
										}
									}
								}
								JOINT LeftMiddleProximal
								{
									OFFSET 0.066616 0.003770 0.003447
									CHANNELS 3 Zrotation Xrotation Yrotation
									JOINT LeftMiddleIntermediate
									{
										OFFSET 0.037006 -0.000004 0.000179
										CHANNELS 3 Zrotation Xrotation Yrotation
										JOINT LeftMiddleDistal
										{
											OFFSET 0.022829 -0.000003 0.000111
											CHANNELS 3 Zrotation Xrotation Yrotation
											End Site
											{
												OFFSET 0.022829 -0.000003 0.000111
											}
										}
									}
								}
								JOINT LeftRingProximal
								{
									OFFSET 0.066883 0.003312 -0.012295
									CHANNELS 3 Zrotation Xrotation Yrotation
									JOINT LeftRingIntermediate
									{
										OFFSET 0.034327 -0.000004 0.000166
										CHANNELS 3 Zrotation Xrotation Yrotation
										JOINT LeftRingDistal
										{
											OFFSET 0.019811 -0.000002 0.000096
											CHANNELS 3 Zrotation Xrotation Yrotation
											End Site
											{
												OFFSET 0.019811 -0.000002 0.000096
											}
										}
									}
								}
								JOINT LeftThumbProximal
								{
									OFFSET 0.001872 -0.006642 0.017855
									CHANNELS 3 Zrotation Xrotation Yrotation
									JOINT LeftThumbIntermediate
									{
										OFFSET 0.032244 -0.005707 0.033063
										CHANNELS 3 Zrotation Xrotation Yrotation
										JOINT LeftThumbDistal
										{
											OFFSET 0.020631 -0.005083 0.019180
											CHANNELS 3 Zrotation Xrotation Yrotation
											End Site
											{
												OFFSET 0.020631 -0.005083 0.019180
											}
										}
									}
								}
							}
						}
					}
				}
				JOINT RightShoulder
				{
					OFFSET -0.022291 0.089803 -0.017557
					CHANNELS 3 Zrotation Xrotation Yrotation
					JOINT RightUpperArm
					{
						OFFSET -0.087729 0.000010 -0.000425
						CHANNELS 3 Zrotation Xrotation Yrotation
						JOINT RightLowerArm
						{
							OFFSET -0.210400 0.000024 -0.001019
							CHANNELS 3 Zrotation Xrotation Yrotation
							JOINT RightHand
							{
								OFFSET -0.205447 0.000024 -0.000995
								CHANNELS 3 Zrotation Xrotation Yrotation
								JOINT RightIndexProximal
								{
									OFFSET -0.064723 0.001510 0.019581
									CHANNELS 3 Zrotation Xrotation Yrotation
									JOINT RightIndexIntermediate
									{
										OFFSET -0.033222 0.000004 -0.000161
										CHANNELS 3 Zrotation Xrotation Yrotation
										JOINT RightIndexDistal
										{
											OFFSET -0.020455 0.000002 -0.000099
											CHANNELS 3 Zrotation Xrotation Yrotation
											End Site
											{
												OFFSET -0.020455 0.000002 -0.000099
											}
										}
									}
								}
								JOINT RightLittleProximal
								{
									OFFSET -0.062537 -0.001951 -0.028548
									CHANNELS 3 Zrotation Xrotation Yrotation
									JOINT RightLittleIntermediate
									{
										OFFSET -0.031399 0.000004 -0.000152
										CHANNELS 3 Zrotation Xrotation Yrotation
										JOINT RightLittleDistal
										{
											OFFSET -0.018096 0.000002 -0.000088
											CHANNELS 3 Zrotation Xrotation Yrotation
											End Site
											{
												OFFSET -0.018096 0.000002 -0.000088
											}
										}
									}
								}
								JOINT RightMiddleProximal
								{
									OFFSET -0.066645 0.003785 0.002802
									CHANNELS 3 Zrotation Xrotation Yrotation
									JOINT RightMiddleIntermediate
									{
										OFFSET -0.037006 0.000004 -0.000179
										CHANNELS 3 Zrotation Xrotation Yrotation
										JOINT RightMiddleDistal
										{
											OFFSET -0.022829 0.000003 -0.000110
											CHANNELS 3 Zrotation Xrotation Yrotation
											End Site
											{
												OFFSET -0.022829 0.000003 -0.000111
											}
										}
									}
								}
								JOINT RightRingProximal
								{
									OFFSET -0.066760 0.003327 -0.012943
									CHANNELS 3 Zrotation Xrotation Yrotation
									JOINT RightRingIntermediate
									{
										OFFSET -0.034327 0.000004 -0.000166
										CHANNELS 3 Zrotation Xrotation Yrotation
										JOINT RightRingDistal
										{
											OFFSET -0.019810 0.000002 -0.000096
											CHANNELS 3 Zrotation Xrotation Yrotation
											End Site
											{
												OFFSET -0.019810 0.000002 -0.000096
											}
										}
									}
								}
								JOINT RightThumbProximal
								{
									OFFSET -0.002047 -0.006641 0.017836
									CHANNELS 3 Zrotation Xrotation Yrotation
									JOINT RightThumbIntermediate
									{
										OFFSET -0.032565 -0.005700 0.032749
										CHANNELS 3 Zrotation Xrotation Yrotation
										JOINT RightThumbDistal
										{
											OFFSET -0.020816 -0.005081 0.018978
											CHANNELS 3 Zrotation Xrotation Yrotation
											End Site
											{
												OFFSET -0.020815 -0.005081 0.018979
											}
										}
									}
								}
							}
						}
					}
				}
			}
		}
	}
	JOINT LeftUpperLeg
	{
		OFFSET 0.077122 -0.039594 -0.005714
		CHANNELS 3 Zrotation Xrotation Yrotation
		JOINT LeftLowerLeg
		{
			OFFSET 0.000000 -0.343087 0.003688
			CHANNELS 3 Zrotation Xrotation Yrotation
			JOINT LeftFoot
			{
				OFFSET 0.000000 -0.401029 -0.031321
				CHANNELS 3 Zrotation Xrotation Yrotation
				JOINT LeftToes
				{
					OFFSET 0.000000 -0.001591 0.127952
					CHANNELS 3 Zrotation Xrotation Yrotation
					End Site
					{
						OFFSET -0.000000 -0.001591 0.127952
					}
				}
			}
		}
	}
	JOINT RightUpperLeg
	{
		OFFSET -0.077122 -0.039594 -0.005714
		CHANNELS 3 Zrotation Xrotation Yrotation
		JOINT RightLowerLeg
		{
			OFFSET -0.000000 -0.343087 0.003689
			CHANNELS 3 Zrotation Xrotation Yrotation
			JOINT RightFoot
			{
				OFFSET 0.000000 -0.401030 -0.031318
				CHANNELS 3 Zrotation Xrotation Yrotation
				JOINT RightToes
				{
					OFFSET -0.000000 -0.001590 0.127952
					CHANNELS 3 Zrotation Xrotation Yrotation
					End Site
					{
						OFFSET 0.000000 -0.001590 0.127952
					}
				}
			}
		}
	}
}
MOTION
Frames: 4
Frame Time: 0.016667
0.000000 0.794594 0.001814 -0.000000 0.000000 -0.000000 0.000000 -0.000000 0.000000 0.000000 0.000000 0.000000 -0.000000 -0.000000 -0.000000 -0.000000 -0.000000 -0.000000 0.000000 0.000001 -0.000000 -0.000000 -0.000004 -0.000000 -0.000000 -0.000004 -0.000000 -0.000000 -0.000000 -0.000000 -0.000000 -0.000000 0.000000 -0.000000 0.000000 0.000000 -0.000000 -0.000000 0.000000 -0.000000 -0.000000 0.000000 -0.000000 -0.000000 -0.000000 -0.000000 -0.000000 -0.000000 -0.000000 -0.000000 -0.000000 0.000000 -0.000000 -0.000000 0.000000 -0.000000 -0.000000 -0.000000 0.000000 0.000000 -0.000000 -0.000000 0.000000 -0.000000 0.000000 0.000000 -0.000000 0.000000 0.000000 -0.000000 0.000000 0.000000 -0.000000 0.000000 0.000000 -0.000000 0.000000 0.000002 -0.000001 0.000001 0.000002 0.000001 0.000000 -0.000001 -0.000000 -0.000001 -0.000000 -0.000000 -0.000000 0.000000 -0.000000 0.000000 -0.000000 0.000000 -0.000000 0.000000 -0.000000 -0.000000 0.000000 0.000000 -0.000000 -0.000000 0.000000 -0.000000 -0.000000 -0.000000 0.000000 -0.000000 0.000000 -0.000000 0.000000 0.000000 -0.000000 0.000000 0.000000 0.000000 0.000000 0.000000 0.000000 0.000000 0.000000 0.000000 0.000000 0.000000 -0.000000 0.000000 0.000000 -0.000000 0.000000 0.000000 -0.000000 0.000000 -0.000001 -0.000000 0.000002 0.000001 0.000001 -0.000003 0.000001 0.000001 0.000001 -0.000000 0.000000 -0.000000 -0.000000 0.000000 0.000000 0.000000 0.000007 0.000000 0.000000 -0.000000 0.000000 -0.000000 0.000000 0.000000 -0.000000 -0.000000 0.000000 0.000000 0.000000 0.000000 0.000000 -0.000000 0.000000 
-0.002301 0.791762 0.015186 -1.414388 -0.044969 -7.709754 -1.599499 0.878717 -0.284296 3.590967 -3.844948 -0.042298 -0.103852 -3.584394 0.067444 -4.959672 -2.622577 -1.608982 -10.284591 8.906877 5.498217 0.000001 0.000002 0.000001 0.000001 0.000002 0.000001 -4.923509 -0.059648 -0.687545 -41.058412 44.552023 -36.555135 -10.959541 12.702893 -68.432922 -13.139529 11.059829 -5.035829 -14.445995 -2.336534 4.062113 -26.367699 -0.521801 -4.667307 -26.368126 -0.521820 -4.667241 -16.789541 4.068847 -12.831613 -26.485534 0.334745 -3.725637 -26.486056 0.334791 -3.725600 -17.975190 -0.627895 -0.885891 -26.485650 0.334827 -3.725808 -26.485949 0.334825 -3.725768 -17.667010 1.066791 -5.113395 -26.485677 0.334826 -3.725764 -26.485991 0.334838 -3.725784 3.807756 -22.391911 15.879199 -4.351858 1.316404 21.528927 -3.252817 0.760312 17.566907 3.472170 -0.061160 0.504265 37.074431 60.747716 44.685720 -0.621445 -0.157712 30.518395 4.424900 30.521937 10.267061 31.938231 -2.934651 0.512185 31.578669 -0.368728 5.590658 31.579267 -0.368737 5.590653 31.124281 4.107190 9.348774 31.714115 0.601843 4.421755 31.714870 0.601843 4.421746 31.913250 -1.385454 1.669702 31.714488 0.601905 4.421957 31.714829 0.601900 4.421948 31.714518 0.601701 4.421670 31.714525 0.601884 4.421972 31.714839 0.601848 4.421963 -6.921532 -4.790330 -13.871152 4.858589 1.359458 -23.927478 3.636181 0.782873 -19.580481 0.517827 -6.738996 -6.645597 0.016608 17.426529 0.025527 -4.571490 -7.980946 2.023383 0.000000 0.000000 0.000000 1.992535 -0.386074 26.142453 -0.010561 12.822075 -0.017713 6.131232 -5.006534 -2.380150 0.000000 -0.000000 -0.000001 
-0.002431 0.791905 0.015490 -1.433126 -0.111460 -7.615702 -1.650433 0.876276 -0.215192 3.578419 -3.848707 -0.042728 -0.118776 -3.580733 0.065956 -4.973596 -2.631447 -1.599974 -10.347299 8.905329 5.510922 -0.000001 0.000001 0.000000 -0.000001 0.000001 0.000000 -4.978487 -0.033151 -0.666546 -40.810452 44.565851 -36.722423 -10.956674 12.712430 -68.459983 -13.060833 10.978938 -5.086970 -14.446000 -2.336523 4.062122 -26.367701 -0.521813 -4.667311 -26.368143 -0.521789 -4.667248 -16.789529 4.068882 -12.831610 -26.485536 0.334767 -3.725634 -26.486024 0.334780 -3.725586 -17.975174 -0.627834 -0.885900 -26.485643 0.334820 -3.725822 -26.486000 0.334802 -3.725779 -17.666991 1.066781 -5.113396 -26.485682 0.334820 -3.725757 -26.485974 0.334840 -3.725773 3.807439 -22.391858 15.878173 -4.351645 1.316386 21.527996 -3.252821 0.760295 17.566902 3.390482 -0.100830 0.530584 37.244243 60.785979 44.614632 -0.620704 -0.156771 30.467100 4.363567 30.515100 10.350873 31.938207 -2.934662 0.512177 31.578690 -0.368724 5.590664 31.579267 -0.368728 5.590644 31.124277 4.107164 9.348794 31.714098 0.601846 4.421739 31.714904 0.601860 4.421759 31.913243 -1.385461 1.669704 31.714471 0.601911 4.421973 31.714826 0.601914 4.421935 31.714508 0.601707 4.421656 31.714491 0.601872 4.422003 31.714856 0.601847 4.421905 -6.921554 -4.790335 -13.871149 4.858603 1.359484 -23.927408 3.636190 0.782862 -19.580499 0.445033 -6.444334 -6.769603 0.023121 16.849424 0.025316 -4.609981 -7.311458 2.161365 0.000001 0.000000 -0.000001 1.860726 -0.157888 26.112597 -0.021149 12.205533 -0.016113 6.074362 -4.365088 -2.488290 -0.000001 -0.000001 0.000000 
-0.002465 0.792046 0.015543 -1.421714 -0.136779 -7.533659 -1.645699 0.870486 -0.185366 3.563409 -3.852494 -0.044121 -0.131086 -3.576901 0.064543 -4.985035 -2.636927 -1.592547 -10.397331 8.903000 5.521416 0.000000 -0.000003 0.000001 0.000000 -0.000003 0.000001 -5.005890 -0.020289 -0.656352 -40.734155 44.558570 -36.764142 -10.954581 12.717594 -68.474361 -13.038636 10.971137 -5.122929 -14.445975 -2.336500 4.062099 -26.367679 -0.521797 -4.667284 -26.368166 -0.521797 -4.667249 -16.789519 4.068872 -12.831624 -26.485530 0.334744 -3.725619 -26.486038 0.334785 -3.725597 -17.975166 -0.627837 -0.885891 -26.485640 0.334810 -3.725814 -26.485942 0.334805 -3.725777 -17.666984 1.066792 -5.113385 -26.485670 0.334827 -3.725752 -26.485993 0.334815 -3.725773 3.807068 -22.391886 15.877033 -4.351408 1.316390 21.526921 -3.252839 0.760322 17.566929 3.349205 -0.120676 0.543486 37.333688 60.805800 44.572783 -0.620318 -0.156442 30.449315 4.328730 30.507798 10.401795 31.938224 -2.934674 0.512161 31.578669 -0.368746 5.590658 31.579250 -0.368711 5.590617 31.124277 4.107181 9.348781 31.714102 0.601824 4.421731 31.714901 0.601870 4.421724 31.913222 -1.385462 1.669685 31.714471 0.601887 4.421970 31.714846 0.601903 4.421942 31.714494 0.601704 4.421640 31.714491 0.601907 4.422003 31.714839 0.601871 4.421955 -6.921554 -4.790324 -13.871168 4.858600 1.359489 -23.927416 3.636168 0.782870 -19.580479 0.426884 -6.213418 -6.824050 0.035055 16.576316 0.025947 -4.647558 -7.222309 2.167013 0.000000 0.000000 -0.000000 1.813324 -0.102848 26.073550 -0.004038 12.080317 -0.016235 6.038718 -4.346847 -2.492863 0.000000 -0.000001 -0.000002 
